<svg id="SvgjsSvg1001" width="288" height="288" xmlns="http://www.w3.org/2000/svg" version="1.1" xmlns:xlink="http://www.w3.org/1999/xlink" xmlns:svgjs="http://svgjs.com/svgjs"><defs id="SvgjsDefs1002"></defs><g id="SvgjsG1008"><svg xmlns="http://www.w3.org/2000/svg" viewBox="0 0 512 512" width="288" height="288"><polygon fill="#f9ff21" points="72.6 191.27 153.8 221.24 197.58 196.82 189.75 176.57 72.6 191.27" class="svgShape colorc0232c-0 selectable"></polygon><polygon fill="#f9ff21" points="349.99 285.06 429.5 317.31 358.11 326.83 311.78 319.34 344.48 285.06 349.99 285.06" class="svgShape colorc0232c-1 selectable"></polygon><polygon fill="#fede47" points="381.62 251.89 304.96 332.3 190.55 452.3 140.78 504.5 163.43 452.3 215.51 332.3 229.5 300.07 124.53 251.89 170.77 206.27 292.41 86.27 372.25 7.5 339.97 86.27 291.85 203.7 296.64 206.27 381.62 251.89" class="svgShape colorfed947-2 selectable"></polygon><polygon fill="#ffd615" points="291.85 203.7 170.77 206.27 292.41 86.27 339.97 86.27 291.85 203.7" class="svgShape colorf8be32-3 selectable"></polygon><polygon fill="#ff1f5a" points="450.22 191.27 72.6 191.27 141.88 71.27 474.5 71.27 450.22 191.27" class="svgShape colore4222e-4 selectable"></polygon><polygon fill="#ffd615" points="304.96 332.3 190.55 452.3 163.43 452.3 215.51 332.3 304.96 332.3" class="svgShape colorf8be32-5 selectable"></polygon><polygon fill="#ff1f5a" points="405.22 437.31 27.6 437.31 96.88 317.31 429.5 317.31 405.22 437.31" class="svgShape colore4222e-6 selectable"></polygon><path fill="#1e2a78" d="M298.79,404.57h26.56c2.46,0,3.51-2.63,3.51-5,0-2.77-1.27-5.17-3.51-5.17h-20V381.62h11.19c2.46,0,3.51-2.4,3.51-4.43,0-2.4-1.27-4.57-3.51-4.57H305.36V360h20c2.24,0,3.51-2.4,3.51-5.18,0-2.4-1.05-5-3.51-5H298.79c-2.53,0-5.07,1.2-5.07,3.6V401C293.72,403.37,296.26,404.57,298.79,404.57Zm-93.17,0c1.86,0,3.35-.6,3.8-2.18L212,393H227.7l2.54,9.37c.44,1.58,1.94,2.18,3.8,2.18,3.21,0,7.46-2,7.46-4.8a3.57,3.57,0,0,0-.15-.83L227.4,353.2c-.82-2.63-4.18-3.9-7.61-3.9s-6.79,1.27-7.61,3.9l-13.87,45.74a3.57,3.57,0,0,0-.15.83C198.16,402.54,202.41,404.57,205.62,404.57Zm14.17-40.65,5.45,20.1H214.35Zm36.71,40.65h23.57c2.24,0,3.36-2.55,3.36-5.1s-1.12-5.1-3.36-5.1h-17v-41.1c0-2.47-2.91-3.52-5.82-3.52s-5.82,1.05-5.82,3.52V401C251.42,403.37,254,404.57,256.5,404.57Zm-30.87-246H249.2c2.24,0,3.36-2.55,3.36-5.1s-1.12-5.1-3.36-5.1h-17v-41.1c0-2.47-2.91-3.52-5.82-3.52s-5.82,1-5.82,3.52V155C220.55,157.37,223.09,158.57,225.63,158.57Zm-43.27,0c2.91,0,5.82-1.2,5.82-3.6V135.62h11.26c2.46,0,3.51-2.4,3.51-4.43,0-2.4-1.27-4.57-3.51-4.57H188.18V114H207.5c2.24,0,3.5-2.4,3.5-5.18,0-2.4-1-5-3.5-5H181.61c-2.54,0-5.07,1.2-5.07,3.6V155C176.54,157.37,179.45,158.57,182.36,158.57Zm298-92a7.52,7.52,0,0,0-5.81-2.75H357.3l21.89-53.43A7.5,7.5,0,0,0,367,2.16L304.53,63.77H141.88a7.49,7.49,0,0,0-6.49,3.75l-69.28,120s0,.1-.07.14q-.17.3-.3.6c0,.09-.08.18-.11.27a.67.67,0,0,0-.06.15,5.22,5.22,0,0,0-.18.56l0,.13a7,7,0,0,0-.18.89c0,.05,0,.11,0,.17a6,6,0,0,0,0,.73v.21a6.84,6.84,0,0,0,0,.79.45.45,0,0,0,0,.11,8.55,8.55,0,0,0,.17.88l.06.18a6.38,6.38,0,0,0,.22.66,2.44,2.44,0,0,0,.1.24q.16.39.36.75l0,0h0a7.52,7.52,0,0,0,.5.75c0,.06.09.12.14.17a6.17,6.17,0,0,0,.48.54l.13.14a7.24,7.24,0,0,0,1.42,1.09l.21.12a6.19,6.19,0,0,0,.58.28l.27.12.16.07,71.44,26.36-22.18,21.88a7.5,7.5,0,0,0,2.14,12.16l98.29,45.11-2.59,6H96.88a7.47,7.47,0,0,0-6.49,3.75l-69.28,120a7.5,7.5,0,0,0,6.49,11.25H158.51l-24.61,56.7a7.5,7.5,0,0,0,12.31,8.17l61.85-64.87H405.22a7.5,7.5,0,0,0,7.35-6l24.28-120a.08.08,0,0,1,0,0,8,8,0,0,0,.14-1.61s0,0,0-.05a6,6,0,0,0-.05-.73c0-.07,0-.14,0-.21s-.06-.37-.1-.55-.05-.18-.07-.26-.09-.33-.15-.48a2.31,2.31,0,0,0-.1-.28c-.06-.16-.13-.3-.2-.45l-.12-.27c-.08-.16-.18-.31-.27-.46l-.12-.21a7.47,7.47,0,0,0-1-1.24l-.09-.08c-.16-.15-.32-.3-.5-.44l-.18-.13c-.15-.11-.3-.22-.46-.32l-.25-.15-.42-.23-.32-.15-.21-.1L363,282.26l24-25.19a7.5,7.5,0,0,0-1.88-11.79l-83.82-45,.62-1.52H450.22a7.5,7.5,0,0,0,7.35-6l24.28-120A7.52,7.52,0,0,0,480.31,66.52ZM351.4,38.61,341.09,63.77h-15.2ZM114.59,198.77h53.1L153.24,213Zm49.85,270,10.42-24h12.47Zm234.64-39H40.59l60.62-105H420.33Zm-8-120H336.77l15.13-15.88Zm-21.64-56-24.7,25.91-.07.07-28.59,30H233.45l2.93-6.75a7.51,7.51,0,0,0-3.75-9.81l-95.1-43.65,51.52-50.83h96.71l-.85,2.09a7.5,7.5,0,0,0,3.39,9.45Zm74.68-70.07H85.59l60.62-105H465.33Zm-177.5-25.2c1.87,0,3.36-.6,3.81-2.18l2.53-9.37h15.74l2.54,9.37c.45,1.58,1.94,2.18,3.81,2.18,3.2,0,7.45-2,7.45-4.8a4.11,4.11,0,0,0-.14-.83L288.37,107.2c-.83-2.63-4.18-3.9-7.61-3.9s-6.79,1.27-7.61,3.9l-13.88,45.74a4.19,4.19,0,0,0-.15.83C259.12,156.54,263.38,158.57,266.58,158.57Zm14.18-40.65L286.2,138H275.31Zm82.8,40.65c2.91,0,5.82-1.2,5.82-3.6V134.65h14.85V155c0,2.4,2.91,3.6,5.82,3.6s5.82-1.2,5.82-3.6v-47.7c0-2.47-2.91-3.52-5.82-3.52s-5.82,1-5.82,3.52v18.38H369.38V107.27c0-2.47-2.91-3.52-5.82-3.52s-5.81,1-5.81,3.52V155C357.75,157.37,360.65,158.57,363.56,158.57ZM171.67,394.82c-6.93,0-9.17-5.55-12.68-5.55-2.83,0-5.07,3.75-5.07,6.3,0,4.95,8.2,9.75,18,9.75,10.81,0,18.65-5.85,18.65-16.65,0-18.9-23.65-17.47-23.65-25,0-2.33,2.16-4.5,7.46-4.5,6.12,0,7.53,2.85,10.22,2.85,3.28,0,4.63-4.13,4.63-6.15,0-5.85-10.9-6.6-14.85-6.6-9.32,0-19.1,4.27-19.1,15.52,0,17.55,23.65,16,23.65,25.05C178.91,393.47,175.11,394.82,171.67,394.82Zm155.86-246c-6.94,0-9.17-5.55-12.68-5.55-2.84,0-5.07,3.75-5.07,6.3,0,5,8.2,9.75,18,9.75,10.81,0,18.65-5.85,18.65-16.65,0-18.9-23.65-17.47-23.65-25,0-2.33,2.16-4.5,7.46-4.5,6.11,0,7.53,2.85,10.22,2.85,3.28,0,4.62-4.13,4.62-6.15,0-5.85-10.89-6.6-14.84-6.6-9.33,0-19.1,4.27-19.1,15.52,0,17.55,23.65,16,23.65,25.05C334.77,147.47,331,148.82,327.53,148.82Z" class="svgShape color1b3764-7 selectable"></path></svg></g></svg>